<?xml version="1.0" encoding="UTF-8" standalone="no"?>
<!-- Created with Inkscape (http://www.inkscape.org/) -->

<svg
   width="210mm"
   height="297mm"
   viewBox="0 0 210 297"
   version="1.1"
   id="svg1"
   xml:space="preserve"
   inkscape:export-filename="chaoss.png"
   inkscape:export-xdpi="92.36364"
   inkscape:export-ydpi="92.36364"
   inkscape:version="1.3.2 (091e20ef0f, 2023-11-25, custom)"
   sodipodi:docname="logo.svg"
   xmlns:inkscape="http://www.inkscape.org/namespaces/inkscape"
   xmlns:sodipodi="http://sodipodi.sourceforge.net/DTD/sodipodi-0.dtd"
   xmlns="http://www.w3.org/2000/svg"
   xmlns:svg="http://www.w3.org/2000/svg"><sodipodi:namedview
     id="namedview1"
     pagecolor="#505050"
     bordercolor="#eeeeee"
     borderopacity="1"
     inkscape:showpageshadow="0"
     inkscape:pageopacity="0"
     inkscape:pagecheckerboard="0"
     inkscape:deskcolor="#505050"
     inkscape:document-units="mm"
     inkscape:zoom="1.048534"
     inkscape:cx="397.22128"
     inkscape:cy="561.25984"
     inkscape:window-width="2560"
     inkscape:window-height="1390"
     inkscape:window-x="0"
     inkscape:window-y="50"
     inkscape:window-maximized="1"
     inkscape:current-layer="g1" /><defs
     id="defs1" /><g
     inkscape:label="Layer 1"
     inkscape:groupmode="layer"
     id="layer1"><g
       style="fill:none;stroke-width:0.111445"
       id="g1"
       transform="matrix(2.3581233,0,0,2.3901851,32.490722,105.5859)"><path
         d="M 38.4393,0.732431 C 37.618,0.731413 36.8056,0.902665 36.054,1.23525 c 0.3424,0.57446 0.6839,1.15023 1.0245,1.72732 0.9075,-0.33392 1.905,-0.3227 2.8049,0.03155 C 40.2102,2.41243 40.537,1.83173 40.8638,1.25201 40.1013,0.908078 39.2749,0.730975 38.4393,0.732431 Z"
         fill="#199ad6"
         id="path1"
         style="stroke-width:0.111445" /><path
         d="m 41.9716,1.90479 c -0.3432,0.57117 -0.6866,1.14169 -1.0304,1.71154 0.7656,0.62797 1.269,1.52196 1.4107,2.50522 L 44.3343,6.0407 C 44.2452,5.22476 43.9894,4.43615 43.5828,3.72441 43.1762,3.01266 42.6276,2.39315 41.9716,1.90479 Z"
         fill="#69c7b9"
         id="path2"
         style="stroke-width:0.111445" /><path
         d="M 35.8981,3.65173 34.8275,1.9668 c -1.196,0.92387 -1.997,2.27122 -2.2401,3.76795 -0.2432,1.49672 0.0898,3.03038 0.9313,4.28895 L 35.053,8.74201 C 34.5671,7.93091 34.3852,6.97197 34.5402,6.03798 34.6951,5.10399 35.1767,4.25635 35.8981,3.64778 Z"
         fill="#d61b5e"
         id="path3"
         style="stroke-width:0.111445" /><path
         d="m 42.3217,7.44922 c -0.1303,0.67827 -0.4341,1.31068 -0.8816,1.83488 -0.4474,0.52421 -1.0229,0.9221 -1.6698,1.1545 -0.6469,0.2324 -1.3429,0.2912 -2.0193,0.1707 -0.6764,-0.1205 -1.3099,-0.4162 -1.8381,-0.85797 l -1.5157,1.30637 c 0.7964,0.7459 1.7815,1.2571 2.8474,1.4776 1.066,0.2204 2.1717,0.1417 3.1962,-0.2277 1.0244,-0.3694 1.928,-1.0151 2.6119,-1.8664 0.6838,-0.85141 1.1215,-1.87559 1.2651,-2.96043 z"
         fill="#bf9cc9"
         id="path4"
         style="stroke-width:0.111445" /><path
         d="M 5.74518,12.6835 C 4.60335,12.6835 3.62622,12.4403 2.8138,11.954 1.99908,11.4669 1.34794,10.7459 0.944195,9.88353 0.509554,8.98964 0.292561,7.92419 0.293214,6.6872 0.293214,5.46137 0.510208,4.40119 0.944195,3.50663 1.34849,2.64468 1.9995,1.92375 2.8138,1.43621 3.62557,0.950482 4.60269,0.707618 5.74518,0.707618 6.40457,0.703927 7.0605,0.803719 7.68929,1.00339 8.26892,1.18356 8.81038,1.47002 9.28635,1.84832 9.36891,1.89899 9.44012,1.96633 9.49547,2.04609 9.55083,2.12585 9.58911,2.21629 9.60792,2.3117 9.63803,2.47505 9.60545,2.64381 9.51674,2.78396 9.47557,2.85069 9.4216,2.90851 9.35797,2.95404 9.29435,2.99957 9.22234,3.03191 9.14616,3.04917 8.98733,3.08729 8.8089,3.03471 8.61086,2.89142 7.83112,2.26241 6.88701,1.9479 5.77851,1.9479 4.47132,1.9479 3.47197,2.36198 2.78047,3.19015 2.08897,4.01832 1.74158,5.184 1.73831,6.6872 c 0,1.51173 0.34575,2.68234 1.03726,3.5118 0.6915,0.8295 1.69085,1.2436 2.99804,1.2423 1.11111,0 2.06634,-0.3204 2.86568,-0.9613 0.19608,-0.1321 0.37549,-0.1824 0.5353,-0.1489 0.07438,0.0136 0.14511,0.0428 0.20759,0.0855 0.06249,0.0428 0.11534,0.0984 0.15515,0.163 0.08228,0.1336 0.11427,0.2923 0.0902,0.4476 -0.03088,0.1804 -0.13174,0.341 -0.28039,0.4466 -0.48122,0.4029 -1.03463,0.7094 -1.6304,0.9031 -0.63669,0.2074 -1.30231,0.311 -1.97156,0.3066 z"
         fill="#000000"
         id="path5"
         style="stroke-width:0.111445;fill:#ffffff" /><path
         d="m 19.8069,0.740234 c -0.451,0 -0.6762,0.237606 -0.6755,0.712816 v 4.57169 h -5.249 c -0.1561,0 -0.3057,0.06233 -0.416,0.17326 -0.1103,0.11094 -0.1723,0.2614 -0.1723,0.41829 v 0 c 0,0.15689 0.062,0.30735 0.1723,0.41829 0.1103,0.11094 0.2599,0.17326 0.416,0.17326 h 5.2529 v 4.73736 c 0,0.4745 0.2252,0.7118 0.6755,0.7118 0.4503,0 0.6751,-0.2373 0.6745,-0.7118 V 1.45305 C 20.4827,0.97784 20.2565,0.740234 19.8069,0.740234 Z m -8.3187,0 c -0.4503,0 -0.6755,0.237606 -0.6755,0.712816 V 11.9383 c 0,0.4745 0.2252,0.7118 0.6755,0.7118 0.4392,0 0.6641,-0.2261 0.6745,-0.6783 H 12.1176 V 4.5236614 2.4084 h 0.0461 V 1.45305 c 0,-0.47521 -0.2251,-0.712816 -0.6755,-0.712816 z"
         fill="#000000"
         id="path6"
         style="fill:#ffffff;stroke-width:0.111445"
         sodipodi:nodetypes="sccsssssscssccssssscccccss" /><path
         id="path6-3"
         style="fill:#ffffff;stroke-width:0.111445"
         d="m 35.994031,16.149146 c -0.450298,0 -0.675615,0.237611 -0.675615,0.712821 v 10.485395 c 0,0.4745 0.225317,0.711739 0.675615,0.711739 0.439199,0 0.663901,-0.226028 0.674301,-0.678228 h -0.04492 v -7.44818 -2.115327 h 0.04602 v -0.955399 c 0,-0.47521 -0.224997,-0.712821 -0.675397,-0.712821 z" /><path
         d="M 32.2756,11.7224 27.7295,1.35348 C 27.6658,1.16584 27.5481,1.00147 27.3913,0.881228 27.2582,0.788715 27.1001,0.739504 26.9383,0.740243 c -0.3621,0 -0.631,0.204412 -0.8068,0.613237 L 21.6021,11.7224 c -0.1216,0.2629 -0.1327,0.4837 -0.0334,0.6625 0.0994,0.1788 0.2807,0.2672 0.5441,0.2652 0.3177,0 0.5647,-0.2044 0.7412,-0.6132 l 0.6932,-1.6337 c 0.2614,-0.65005 0.5366,-1.31028 0.8254,-1.9807 0.1817,-0.41869 0.3638,-0.8308 0.5461,-1.23634 l 2.003,-4.7393 h 0.0333 l 2.5157,5.96282 h -3.552 C 25.779,8.40952 25.6442,8.46176 25.5406,8.5562 25.4371,8.65063 25.3723,8.78048 25.3589,8.92038 v 0.01183 c -0.0076,0.07853 0.0011,0.1578 0.0258,0.23271 0.0246,0.07491 0.0646,0.1438 0.1174,0.20222 0.0527,0.05842 0.117,0.10509 0.1888,0.13699 0.0717,0.0319 0.1494,0.04833 0.2278,0.04823 h 4.0353 l 1.0706,2.48454 c 0.0594,0.1737 0.1604,0.3302 0.2941,0.4555 0.1344,0.11 0.3044,0.1662 0.4775,0.1577 0.2614,0 0.4372,-0.0884 0.5274,-0.2652 0.0883,-0.1765 0.0726,-0.3973 -0.048,-0.6625 z"
         fill="#000000"
         id="path7"
         style="stroke-width:0.111445;fill:#ffffff" /><path
         d="m 49.086716,27.010047 -4.5461,-10.368919 c -0.0637,-0.18764 -0.1814,-0.35201 -0.3382,-0.472252 -0.1331,-0.09251 -0.2912,-0.141724 -0.453,-0.140985 -0.3621,0 -0.631,0.204412 -0.8068,0.613237 l -4.5294,10.368919 c -0.1216,0.2629 -0.1327,0.4837 -0.0334,0.6625 0.0994,0.1788 0.2807,0.2672 0.5441,0.2652 0.3177,0 0.5647,-0.2044 0.7412,-0.6132 l 0.6932,-1.6337 c 0.2614,-0.65005 0.5366,-1.31028 0.8254,-1.9807 0.1817,-0.41869 0.3638,-0.8308 0.5461,-1.23634 l 2.003,-4.739299 h 0.0333 l 2.5157,5.962819 h -3.552 c -0.1397,-1.6e-4 -0.2745,0.05208 -0.3781,0.14652 -0.1035,0.09443 -0.1683,0.22428 -0.1817,0.36418 v 0.01183 c -0.0076,0.07853 0.0011,0.1578 0.0258,0.23271 0.0246,0.07491 0.0646,0.1438 0.1174,0.20222 0.0527,0.05842 0.117,0.10509 0.1888,0.13699 0.0717,0.0319 0.1494,0.04833 0.2278,0.04823 h 4.0353 l 1.0706,2.48454 c 0.0594,0.1737 0.1604,0.3302 0.2941,0.4555 0.1344,0.11 0.3044,0.1662 0.4775,0.1577 0.2614,0 0.4372,-0.0884 0.5274,-0.2652 0.0883,-0.1765 0.0726,-0.3973 -0.048,-0.6625 z"
         fill="#000000"
         id="path7-8"
         style="fill:#ffffff;stroke-width:0.111445" /><path
         d="m 22.373703,27.086422 -4.5461,-10.36892 c -0.0637,-0.18764 -0.1814,-0.35201 -0.3382,-0.472252 -0.1331,-0.09251 -0.2912,-0.141724 -0.453,-0.140985 -0.3621,0 -0.631,0.204412 -0.8068,0.613237 l -4.5294,10.36892 c -0.1216,0.2629 -0.1327,0.4837 -0.0334,0.6625 0.0994,0.1788 0.2807,0.2672 0.5441,0.2652 0.3177,0 0.5647,-0.2044 0.7412,-0.6132 l 0.6932,-1.6337 c 0.2614,-0.65005 0.5366,-1.31028 0.8254,-1.9807 0.1817,-0.41869 0.3638,-0.8308 0.5461,-1.23634 l 2.003,-4.7393 h 0.0333 l 2.5157,5.96282 h -3.552 c -0.1397,-1.6e-4 -0.2745,0.05208 -0.3781,0.14652 -0.1035,0.09443 -0.1683,0.22428 -0.1817,0.36418 v 0.01183 c -0.0076,0.07853 0.0011,0.1578 0.0258,0.23271 0.0246,0.07491 0.0646,0.1438 0.1174,0.20222 0.0527,0.05842 0.117,0.10509 0.1888,0.13699 0.0717,0.0319 0.1494,0.04833 0.2278,0.04823 h 4.0353 l 1.0706,2.48454 c 0.0594,0.1737 0.1604,0.3302 0.2941,0.4555 0.1344,0.11 0.3044,0.1662 0.4775,0.1577 0.2614,0 0.4372,-0.0884 0.5274,-0.2652 0.0883,-0.1765 0.0726,-0.3973 -0.048,-0.6625 z"
         fill="#000000"
         id="path7-9"
         style="fill:#ffffff;stroke-width:0.111445"
         inkscape:transform-center-x="-34.588929"
         inkscape:transform-center-y="-45.148557" /><path
         d="m 49.5844,12.6836 c -0.7537,0.0049 -1.5046,-0.0926 -2.2323,-0.2899 -0.6483,-0.1701 -1.2596,-0.4596 -1.803,-0.8538 -0.078,-0.0471 -0.1459,-0.1094 -0.1998,-0.1832 -0.0539,-0.0738 -0.0926,-0.1576 -0.1139,-0.2466 -0.0338,-0.1569 -0.0134,-0.3207 0.0578,-0.4644 0.0317,-0.0674 0.0765,-0.1278 0.1317,-0.1776 0.0552,-0.0498 0.1198,-0.088 0.1899,-0.1123 0.1425,-0.0492 0.3059,-0.0134 0.4902,0.1075 0.475,0.3552 1.0111,0.6192 1.5814,0.7789 0.6193,0.164 1.2576,0.2436 1.898,0.2366 0.9882,0 1.7213,-0.185 2.199,-0.5551 0.2284,-0.1677 0.4128,-0.3886 0.5376,-0.6438 0.1249,-0.2552 0.1863,-0.53696 0.1791,-0.82124 C 52.5086,9.23801 52.466,9.0184 52.3759,8.81705 52.2857,8.61571 52.1504,8.43813 51.9805,8.29824 51.6354,8.01167 51.0563,7.78557 50.2432,7.61993 L 48.5305,7.2719 C 47.4985,7.05106 46.7269,6.68956 46.2158,6.1874 45.7047,5.68524 45.4498,5.01251 45.4511,4.16923 45.4372,3.52077 45.6243,2.88404 45.9864,2.34726 46.362,1.81319 46.878,1.39469 47.4766,1.13852 48.1737,0.838867 48.9264,0.691993 49.6844,0.707679 50.3406,0.70237 50.9935,0.800168 51.6197,0.997538 52.2086,1.18579 52.7585,1.48047 53.2422,1.86712 53.3823,1.96844 53.4793,2.1191 53.5138,2.28909 53.5427,2.43958 53.5162,2.5955 53.4393,2.72782 53.4048,2.79109 53.3578,2.84657 53.3011,2.89083 53.2445,2.93509 53.1794,2.96719 53.1099,2.98514 52.9674,3.02392 52.7971,2.98251 52.5991,2.86092 52.1905,2.53445 51.7251,2.28738 51.2266,2.13233 50.7199,1.9839 50.1944,1.91082 49.6668,1.91543 c -0.868,0 -1.5598,0.20145 -2.0755,0.60436 -0.2475,0.18428 -0.4471,0.42586 -0.5819,0.70425 -0.1348,0.27839 -0.2009,0.58537 -0.1926,0.89491 0,0.52976 0.1634,0.94943 0.4902,1.25901 0.3268,0.30958 0.8552,0.53568 1.5852,0.67831 l 1.7138,0.36479 c 1.1111,0.23202 1.9317,0.58268 2.4617,1.05197 0.5301,0.4693 0.7964,1.10686 0.7991,1.91268 0.0113,0.61499 -0.1702,1.21789 -0.5187,1.72339 -0.3751,0.5195 -0.8891,0.9212 -1.4823,1.1584 -0.6419,0.2774 -1.4023,0.4161 -2.2814,0.4161 z"
         fill="#000000"
         id="path8"
         style="stroke-width:0.111445;fill:#f9f9f9" /><path
         d="m 58.7256,12.6836 c -0.7534,0.0048 -1.504,-0.0927 -2.2314,-0.2899 -0.6487,-0.1699 -1.2603,-0.4594 -1.8039,-0.8538 -0.0779,-0.0472 -0.1456,-0.1095 -0.1993,-0.1833 -0.0537,-0.0738 -0.0923,-0.1576 -0.1135,-0.2465 -0.0341,-0.1568 -0.014,-0.3206 0.0569,-0.4644 0.0317,-0.0674 0.0764,-0.1278 0.1316,-0.1776 0.0553,-0.0498 0.1198,-0.088 0.19,-0.1123 0.1431,-0.0492 0.3068,-0.0138 0.4902,0.1075 0.475,0.3552 1.0111,0.6192 1.5813,0.7789 0.6193,0.164 1.2577,0.2436 1.8981,0.2366 0.9882,0 1.7212,-0.185 2.199,-0.5551 0.2283,-0.1677 0.4128,-0.3886 0.5376,-0.6438 C 61.587,10.0247 61.6485,9.74294 61.6413,9.45867 61.6497,9.23812 61.6073,9.0186 61.5173,8.81729 61.4273,8.61597 61.2922,8.43833 61.1226,8.29824 60.7769,8.01167 60.1975,7.78557 59.3844,7.61993 L 57.6716,7.27191 C 56.6396,7.05106 55.8681,6.68956 55.3569,6.1874 54.8458,5.68524 54.5906,5.01449 54.5913,4.17515 c -0.0139,-0.64847 0.1732,-1.2852 0.5352,-1.82198 0.3751,-0.5365 0.8915,-0.95715 1.4912,-1.21464 0.6969,-0.299669 1.4492,-0.446546 2.2069,-0.430849 0.6562,-0.00531 1.3091,0.092489 1.9353,0.289859 0.5889,0.18825 1.1388,0.48293 1.6225,0.86958 0.1407,0.1007 0.2379,0.25164 0.2716,0.42197 0.0293,0.15049 0.0028,0.30657 -0.0745,0.43873 -0.0345,0.06327 -0.0815,0.11875 -0.1382,0.16301 -0.0566,0.04426 -0.1217,0.07636 -0.1912,0.09432 -0.1422,0.03845 -0.3128,0 -0.5098,-0.12423 -0.4086,-0.32639 -0.8741,-0.57346 -1.3726,-0.72859 -0.5066,-0.1485 -1.0321,-0.22158 -1.5598,-0.2169 -0.8653,0 -1.5572,0.20178 -2.0755,0.60535 -0.2472,0.18445 -0.4465,0.42608 -0.5812,0.70445 -0.1346,0.27837 -0.2006,0.58526 -0.1923,0.8947 0,0.52977 0.1634,0.94944 0.4902,1.25902 0.3268,0.30958 0.8549,0.53535 1.5843,0.67732 l 1.7137,0.36479 c 1.1111,0.23202 1.9317,0.58268 2.4618,1.05197 0.5301,0.4693 0.7964,1.10686 0.799,1.91268 0.0114,0.61499 -0.1701,1.21789 -0.5186,1.72339 -0.3751,0.5195 -0.8891,0.9212 -1.4824,1.1584 -0.6418,0.2774 -1.4022,0.4161 -2.2813,0.4161 z"
         fill="#000000"
         id="path9"
         style="stroke-width:0.111445;fill:#f9f9f9" /><path
         d="m 27.944216,27.99296 c -0.7534,0.0048 -1.504,-0.0927 -2.2314,-0.2899 -0.6487,-0.1699 -1.2603,-0.4594 -1.8039,-0.8538 -0.0779,-0.0472 -0.1456,-0.1095 -0.1993,-0.1833 -0.0537,-0.0738 -0.0923,-0.1576 -0.1135,-0.2465 -0.0341,-0.1568 -0.014,-0.3206 0.0569,-0.4644 0.0317,-0.0674 0.0764,-0.1278 0.1316,-0.1776 0.0553,-0.0498 0.1198,-0.088 0.19,-0.1123 0.1431,-0.0492 0.3068,-0.0138 0.4902,0.1075 0.475,0.3552 1.0111,0.6192 1.5813,0.7789 0.6193,0.164 1.2577,0.2436 1.8981,0.2366 0.9882,0 1.7212,-0.185 2.199,-0.5551 0.2283,-0.1677 0.4128,-0.3886 0.5376,-0.6438 0.1248,-0.2552 0.1863,-0.53696 0.1791,-0.82123 0.0084,-0.22055 -0.034,-0.44007 -0.124,-0.64138 -0.09,-0.20132 -0.2251,-0.37896 -0.3947,-0.51905 -0.3457,-0.28657 -0.9251,-0.51267 -1.7382,-0.67831 l -1.7128,-0.34802 c -1.032,-0.22085 -1.8035,-0.58235 -2.3147,-1.08451 -0.5111,-0.50216 -0.7663,-1.17291 -0.7656,-2.01225 -0.0139,-0.64847 0.1732,-1.2852 0.5352,-1.82198 0.3751,-0.5365 0.8915,-0.95715 1.4912,-1.21464 0.6969,-0.299669 1.4492,-0.446546 2.2069,-0.430849 0.6562,-0.0053 1.3091,0.09249 1.9353,0.289859 0.5889,0.18825 1.1388,0.48293 1.6225,0.86958 0.1407,0.1007 0.2379,0.25164 0.2716,0.42197 0.0293,0.15049 0.0028,0.30657 -0.0745,0.43873 -0.0345,0.06327 -0.0815,0.11875 -0.1382,0.16301 -0.0566,0.04426 -0.1217,0.07636 -0.1912,0.09432 -0.1422,0.03845 -0.3128,0 -0.5098,-0.12423 -0.4086,-0.32639 -0.8741,-0.57346 -1.3726,-0.72859 -0.5066,-0.1485 -1.0321,-0.22158 -1.5598,-0.2169 -0.8653,0 -1.5572,0.20178 -2.0755,0.60535 -0.2472,0.18445 -0.4465,0.42608 -0.5812,0.70445 -0.1346,0.27837 -0.2006,0.58526 -0.1923,0.8947 0,0.52977 0.1634,0.94944 0.4902,1.25902 0.3268,0.30958 0.8549,0.53535 1.5843,0.67732 l 1.7137,0.36479 c 1.1111,0.23202 1.9317,0.58268 2.4618,1.05197 0.5301,0.4693 0.7964,1.10686 0.799,1.91268 0.0114,0.61499 -0.1701,1.21789 -0.5186,1.72339 -0.3751,0.5195 -0.8891,0.9212 -1.4824,1.1584 -0.6418,0.2774 -1.4022,0.4161 -2.2813,0.4161 z"
         fill="#000000"
         id="path9-9"
         style="fill:#f9f9f9;stroke-width:0.111445" /></g></g></svg>
